<?xml version="1.0" standalone="no"?>
<!DOCTYPE svg PUBLIC "-//W3C//DTD SVG 20010904//EN"
 "http://www.w3.org/TR/2001/REC-SVG-20010904/DTD/svg10.dtd">
<svg version="1.0" xmlns="http://www.w3.org/2000/svg"
 width="256.000000pt" height="256.000000pt" viewBox="0 0 256.000000 256.000000"
 preserveAspectRatio="xMidYMid meet">
<metadata>
Created by potrace 1.14, written by Peter Selinger 2001-2017
</metadata>
<g transform="translate(0.000000,256.000000) scale(0.100000,-0.100000)"
fill="#000000" stroke="none">
<path d="M1170 2554 c-97 -13 -214 -38 -294 -65 -409 -136 -730 -484 -832
-904 -25 -105 -49 -323 -39 -356 6 -17 16 -19 95 -19 l90 0 2 173 3 172 72 3
72 3 40 -78 c22 -43 55 -107 74 -142 l35 -64 71 141 71 142 75 0 75 0 0 -175
0 -175 30 0 c24 0 30 4 30 23 1 38 36 102 74 134 132 109 352 40 373 -116 4
-30 10 -41 23 -41 15 0 18 12 22 78 7 119 65 204 168 251 52 24 150 28 213 9
41 -12 127 -84 127 -106 0 -6 -20 -27 -45 -48 l-46 -37 -32 31 c-36 34 -75 52
-115 52 -72 0 -136 -88 -130 -177 l3 -48 83 -3 82 -3 0 41 0 40 115 0 115 0 0
-40 c0 -33 3 -40 19 -40 15 0 21 10 26 40 10 61 57 118 122 147 47 22 65 25
119 20 109 -8 182 -68 202 -163 l8 -39 97 -3 97 -3 0 138 c0 150 -17 245 -67
378 -130 348 -419 632 -771 759 -149 53 -416 87 -552 70z"/>
<path d="M330 1257 c0 -44 2 -47 25 -47 l25 0 -21 43 c-29 57 -29 57 -29 4z"/>
<path d="M616 1260 c-20 -51 -20 -50 4 -50 17 0 20 7 20 45 0 25 -2 45 -4 45
-2 0 -11 -18 -20 -40z"/>
<path d="M1006 1269 c-44 -52 -37 -59 59 -59 76 0 85 2 85 19 0 10 -11 30 -25
45 -35 38 -85 36 -119 -5z"/>
<path d="M2076 1269 c-44 -52 -37 -59 59 -59 79 0 85 1 85 20 0 33 -44 70 -84
70 -26 0 -40 -7 -60 -31z"/>
</g>
</svg>
